<svg width="40" height="40" viewBox="0 0 40 40" fill="none" xmlns="http://www.w3.org/2000/svg">
<path id="vector" fill-rule="evenodd" clip-rule="evenodd" d="M0 20C0 8.9543 8.9543 0 20 0C31.0457 0 40 8.9543 40 20C40 31.0457 31.0457 40 20 40C8.9543 40 0 31.0457 0 20ZM28.0075 17.3831C28.9062 16.7694 29.1373 15.5434 28.5236 14.6447C27.9099 13.746 26.6839 13.5149 25.7852 14.1286L25.5856 14.2649C22.3523 16.4728 19.5653 19.2597 17.3613 22.4777L14.4958 19.6153C13.7259 18.8462 12.4783 18.8469 11.7092 19.6168C10.9401 20.3867 10.9408 21.6343 11.7107 22.4034L16.3239 27.0117C16.7581 27.4455 17.3698 27.6522 17.9782 27.5706C18.5866 27.4891 19.1222 27.1287 19.4269 26.5958C21.4976 22.975 24.3633 19.8716 27.8079 17.5194L28.0075 17.3831Z" fill="#2EC4B6"/>
</svg>
